<?xml version="1.0" standalone="no"?>
<!DOCTYPE svg PUBLIC "-//W3C//DTD SVG 20010904//EN"
 "http://www.w3.org/TR/2001/REC-SVG-20010904/DTD/svg10.dtd">
<svg version="1.0" xmlns="http://www.w3.org/2000/svg"
 width="160.000000pt" height="160.000000pt" viewBox="0 0 160.000000 160.000000"
 preserveAspectRatio="xMidYMid meet">
<metadata>
Created by potrace 1.14, written by Peter Selinger 2001-2017
</metadata>
<g transform="translate(0.000000,160.000000) scale(0.100000,-0.100000)"
fill="#000000" stroke="none">
<path d="M947 1583 c-16 -15 -4 -38 43 -80 69 -62 131 -157 170 -261 10 -26
17 -32 37 -29 33 4 32 9 -30 137 -32 65 -59 103 -118 163 -74 74 -88 85 -102
70z"/>
<path d="M585 1485 c-14 -14 -26 -32 -26 -40 -1 -8 -2 -21 -3 -27 -4 -25 24
-80 81 -156 31 -42 60 -79 63 -82 3 -3 17 -21 30 -40 13 -19 27 -37 30 -40 24
-22 121 -162 118 -170 -4 -13 -74 59 -178 185 -41 49 -82 96 -90 105 -8 8 -44
50 -79 93 -97 117 -154 142 -214 94 -49 -39 -36 -117 32 -194 16 -18 57 -65
92 -104 35 -40 72 -81 82 -93 21 -24 127 -144 142 -160 82 -90 99 -116 76
-116 -11 0 -3 -9 -166 165 -222 237 -238 250 -300 246 -35 -2 -72 -36 -79 -72
-2 -14 3 -42 12 -62 15 -32 220 -253 391 -422 34 -33 61 -64 61 -68 0 -9 -32
7 -52 25 -99 94 -218 198 -236 207 -38 20 -70 22 -101 7 -31 -17 -41 -34 -41
-73 0 -44 28 -77 204 -236 43 -40 93 -85 110 -102 18 -16 61 -55 96 -85 35
-30 72 -62 81 -71 39 -38 154 -121 187 -135 54 -23 80 -27 155 -27 58 1 80 7
140 36 89 44 105 56 188 138 44 44 78 90 100 134 30 61 33 76 33 159 1 90 -9
217 -19 266 -26 118 -26 149 3 235 9 28 17 52 17 55 1 3 11 25 24 50 39 74 42
95 18 118 -61 55 -151 45 -221 -24 -41 -42 -57 -80 -61 -144 -6 -107 -53 -156
-119 -125 -41 20 -104 92 -238 274 -60 80 -129 172 -154 204 -76 97 -139 121
-189 72z"/>
<path d="M868 1472 c-3 -12 6 -26 26 -42 51 -38 118 -136 146 -212 7 -21 16
-28 35 -28 21 0 23 3 16 23 -38 99 -97 189 -162 245 -42 37 -55 39 -61 14z"/>
<path d="M136 601 c-18 -29 113 -192 191 -237 40 -24 73 -27 73 -6 0 5 -24 25
-54 46 -62 42 -90 73 -142 150 -35 53 -56 67 -68 47z"/>
<path d="M16 528 c32 -62 78 -123 139 -184 71 -71 165 -130 177 -111 15 23 8
35 -37 62 -62 36 -155 132 -201 205 -31 51 -41 60 -66 60 l-29 0 17 -32z"/>
</g>
</svg>
